<mxfile host="Electron" modified="2023-10-18T14:10:36.668Z" agent="Mozilla/5.0 (Windows NT 10.0; Win64; x64) AppleWebKit/537.36 (KHTML, like Gecko) draw.io/22.0.2 Chrome/114.0.5735.289 Electron/25.8.4 Safari/537.36" etag="WD_LuxDQK-7gGwx2u_0y" version="22.0.2" type="device">
  <diagram name="Página-1" id="KI8bUa7aei0umKRHovau">
    <mxGraphModel dx="1794" dy="494" grid="0" gridSize="10" guides="1" tooltips="1" connect="1" arrows="1" fold="1" page="1" pageScale="1" pageWidth="827" pageHeight="1169" math="0" shadow="0">
      <root>
        <mxCell id="0" />
        <mxCell id="1" parent="0" />
        <mxCell id="fGmWadkg2smVgqGT0z6X-11" style="edgeStyle=orthogonalEdgeStyle;rounded=0;orthogonalLoop=1;jettySize=auto;html=1;entryX=0.5;entryY=0;entryDx=0;entryDy=0;" parent="1" source="fGmWadkg2smVgqGT0z6X-1" target="fGmWadkg2smVgqGT0z6X-2" edge="1">
          <mxGeometry relative="1" as="geometry" />
        </mxCell>
        <mxCell id="fGmWadkg2smVgqGT0z6X-1" value="&lt;b&gt;Start&lt;br&gt;&lt;/b&gt;(comenzar)" style="ellipse;whiteSpace=wrap;html=1;fillColor=#d5e8d4;strokeColor=#82b366;" parent="1" vertex="1">
          <mxGeometry x="325" y="10" width="125" height="40" as="geometry" />
        </mxCell>
        <mxCell id="fGmWadkg2smVgqGT0z6X-4" style="edgeStyle=orthogonalEdgeStyle;rounded=0;orthogonalLoop=1;jettySize=auto;html=1;exitX=0;exitY=0.5;exitDx=0;exitDy=0;entryX=1;entryY=0.5;entryDx=0;entryDy=0;" parent="1" source="fGmWadkg2smVgqGT0z6X-2" target="fGmWadkg2smVgqGT0z6X-3" edge="1">
          <mxGeometry relative="1" as="geometry" />
        </mxCell>
        <mxCell id="fGmWadkg2smVgqGT0z6X-23" style="edgeStyle=orthogonalEdgeStyle;rounded=0;orthogonalLoop=1;jettySize=auto;html=1;entryX=0;entryY=0.5;entryDx=0;entryDy=0;" parent="1" source="fGmWadkg2smVgqGT0z6X-2" target="fGmWadkg2smVgqGT0z6X-22" edge="1">
          <mxGeometry relative="1" as="geometry" />
        </mxCell>
        <mxCell id="fGmWadkg2smVgqGT0z6X-2" value="&lt;div style=&quot;font-size: 11px;&quot;&gt;&lt;b&gt;&lt;font style=&quot;font-size: 11px;&quot;&gt;Key_Value&lt;/font&gt;&lt;/b&gt;&lt;/div&gt;&lt;div style=&quot;font-size: 11px;&quot;&gt;&lt;b&gt;&lt;font style=&quot;font-size: 11px;&quot;&gt;Pairs?&lt;/font&gt;&lt;/b&gt;&lt;/div&gt;&lt;div style=&quot;font-size: 11px;&quot;&gt;&lt;font style=&quot;font-size: 11px;&quot;&gt;(Valor clave&lt;/font&gt;&lt;/div&gt;&lt;div style=&quot;font-size: 11px;&quot;&gt;&lt;font style=&quot;font-size: 11px;&quot;&gt;&lt;span style=&quot;background-color: initial;&quot;&gt;Pares&lt;/span&gt;)&lt;/font&gt;&lt;/div&gt;" style="rhombus;whiteSpace=wrap;html=1;fillColor=#f5f5f5;gradientColor=#b3b3b3;strokeColor=#666666;" parent="1" vertex="1">
          <mxGeometry x="330" y="90" width="115" height="100" as="geometry" />
        </mxCell>
        <mxCell id="fGmWadkg2smVgqGT0z6X-7" style="edgeStyle=elbowEdgeStyle;rounded=0;orthogonalLoop=1;jettySize=auto;html=1;entryX=0.5;entryY=0;entryDx=0;entryDy=0;exitX=0;exitY=0.5;exitDx=0;exitDy=0;" parent="1" source="fGmWadkg2smVgqGT0z6X-3" target="fGmWadkg2smVgqGT0z6X-6" edge="1">
          <mxGeometry relative="1" as="geometry">
            <Array as="points">
              <mxPoint x="45" y="160" />
            </Array>
          </mxGeometry>
        </mxCell>
        <mxCell id="fGmWadkg2smVgqGT0z6X-13" style="edgeStyle=orthogonalEdgeStyle;rounded=0;orthogonalLoop=1;jettySize=auto;html=1;entryX=0.5;entryY=0;entryDx=0;entryDy=0;" parent="1" source="fGmWadkg2smVgqGT0z6X-3" target="fGmWadkg2smVgqGT0z6X-12" edge="1">
          <mxGeometry relative="1" as="geometry" />
        </mxCell>
        <mxCell id="fGmWadkg2smVgqGT0z6X-3" value="&lt;div style=&quot;font-size: 11px;&quot;&gt;&lt;b&gt;&lt;font style=&quot;font-size: 11px;&quot;&gt;Order is&lt;/font&gt;&lt;/b&gt;&lt;/div&gt;&lt;div style=&quot;font-size: 11px;&quot;&gt;&lt;b&gt;&lt;font style=&quot;font-size: 11px;&quot;&gt;important?&lt;/font&gt;&lt;/b&gt;&lt;/div&gt;&lt;div style=&quot;font-size: 11px;&quot;&gt;&lt;font style=&quot;font-size: 11px;&quot;&gt;(El orden es&lt;/font&gt;&lt;/div&gt;&lt;div style=&quot;font-size: 11px;&quot;&gt;&lt;font style=&quot;font-size: 11px;&quot;&gt;&lt;span style=&quot;background-color: initial;&quot;&gt;importante?&lt;/span&gt;)&lt;/font&gt;&lt;/div&gt;" style="rhombus;whiteSpace=wrap;html=1;fillColor=#f5f5f5;gradientColor=#b3b3b3;strokeColor=#666666;" parent="1" vertex="1">
          <mxGeometry x="110" y="90" width="140" height="100" as="geometry" />
        </mxCell>
        <mxCell id="fGmWadkg2smVgqGT0z6X-5" value="yes" style="text;html=1;strokeColor=none;fillColor=none;align=center;verticalAlign=middle;whiteSpace=wrap;rounded=0;" parent="1" vertex="1">
          <mxGeometry x="270" y="120" width="60" height="30" as="geometry" />
        </mxCell>
        <mxCell id="fGmWadkg2smVgqGT0z6X-6" value="&lt;b&gt;HasMap&lt;/b&gt;" style="rounded=0;whiteSpace=wrap;html=1;fillColor=#dae8fc;strokeColor=#6c8ebf;" parent="1" vertex="1">
          <mxGeometry x="10" y="200" width="70" height="30" as="geometry" />
        </mxCell>
        <mxCell id="fGmWadkg2smVgqGT0z6X-9" value="No" style="text;html=1;strokeColor=none;fillColor=none;align=center;verticalAlign=middle;whiteSpace=wrap;rounded=0;" parent="1" vertex="1">
          <mxGeometry y="150" width="60" height="30" as="geometry" />
        </mxCell>
        <mxCell id="fGmWadkg2smVgqGT0z6X-17" style="edgeStyle=orthogonalEdgeStyle;rounded=0;orthogonalLoop=1;jettySize=auto;html=1;entryX=0.5;entryY=0;entryDx=0;entryDy=0;" parent="1" source="fGmWadkg2smVgqGT0z6X-12" target="fGmWadkg2smVgqGT0z6X-16" edge="1">
          <mxGeometry relative="1" as="geometry" />
        </mxCell>
        <mxCell id="fGmWadkg2smVgqGT0z6X-20" style="edgeStyle=orthogonalEdgeStyle;rounded=0;orthogonalLoop=1;jettySize=auto;html=1;" parent="1" source="fGmWadkg2smVgqGT0z6X-12" target="fGmWadkg2smVgqGT0z6X-19" edge="1">
          <mxGeometry relative="1" as="geometry" />
        </mxCell>
        <mxCell id="fGmWadkg2smVgqGT0z6X-12" value="&lt;font style=&quot;font-size: 11px;&quot;&gt;&lt;b&gt;Sorted?&lt;br&gt;&lt;/b&gt;(¿Ordenada?)&lt;/font&gt;" style="rhombus;whiteSpace=wrap;html=1;fillColor=#f5f5f5;gradientColor=#b3b3b3;strokeColor=#666666;" parent="1" vertex="1">
          <mxGeometry x="125" y="240" width="110" height="80" as="geometry" />
        </mxCell>
        <mxCell id="fGmWadkg2smVgqGT0z6X-14" value="yes" style="text;html=1;strokeColor=none;fillColor=none;align=center;verticalAlign=middle;whiteSpace=wrap;rounded=0;" parent="1" vertex="1">
          <mxGeometry x="170" y="200" width="60" height="30" as="geometry" />
        </mxCell>
        <mxCell id="fGmWadkg2smVgqGT0z6X-16" value="&lt;b&gt;TreeMap&lt;/b&gt;" style="rounded=0;whiteSpace=wrap;html=1;fillColor=#dae8fc;strokeColor=#6c8ebf;" parent="1" vertex="1">
          <mxGeometry x="20" y="360" width="75" height="30" as="geometry" />
        </mxCell>
        <mxCell id="fGmWadkg2smVgqGT0z6X-18" value="&lt;font style=&quot;font-size: 11px;&quot;&gt;&lt;b&gt;By Values&lt;/b&gt;&lt;br&gt;(Por valores)&lt;/font&gt;" style="text;html=1;strokeColor=none;fillColor=none;align=center;verticalAlign=middle;whiteSpace=wrap;rounded=0;" parent="1" vertex="1">
          <mxGeometry x="-30" y="300" width="80" height="30" as="geometry" />
        </mxCell>
        <mxCell id="fGmWadkg2smVgqGT0z6X-19" value="&lt;b&gt;LikedHasMap&lt;/b&gt;" style="rounded=0;whiteSpace=wrap;html=1;fillColor=#dae8fc;strokeColor=#6c8ebf;" parent="1" vertex="1">
          <mxGeometry x="137.5" y="460" width="85" height="30" as="geometry" />
        </mxCell>
        <mxCell id="fGmWadkg2smVgqGT0z6X-21" value="&lt;div style=&quot;font-size: 11px;&quot;&gt;&lt;b&gt;&lt;font style=&quot;font-size: 11px;&quot;&gt;By&amp;nbsp;&amp;nbsp;&lt;/font&gt;&lt;span style=&quot;background-color: initial;&quot;&gt;Insertion&lt;/span&gt;&lt;/b&gt;&lt;/div&gt;&lt;div style=&quot;font-size: 11px;&quot;&gt;&lt;font style=&quot;font-size: 11px;&quot;&gt;&lt;b&gt;Order&lt;/b&gt;&lt;/font&gt;&lt;/div&gt;&lt;div style=&quot;font-size: 11px;&quot;&gt;&lt;font style=&quot;font-size: 11px;&quot;&gt;(Por&amp;nbsp;&lt;/font&gt;&lt;span style=&quot;background-color: initial;&quot;&gt;Inserción&lt;/span&gt;&lt;/div&gt;&lt;div style=&quot;font-size: 11px;&quot;&gt;&lt;font style=&quot;font-size: 11px;&quot;&gt;&lt;span style=&quot;background-color: initial;&quot;&gt;Orden&lt;/span&gt;)&lt;/font&gt;&lt;/div&gt;" style="text;html=1;strokeColor=none;fillColor=none;align=center;verticalAlign=middle;whiteSpace=wrap;rounded=0;" parent="1" vertex="1">
          <mxGeometry x="100" y="377.5" width="90" height="90" as="geometry" />
        </mxCell>
        <mxCell id="fGmWadkg2smVgqGT0z6X-26" style="edgeStyle=orthogonalEdgeStyle;rounded=0;orthogonalLoop=1;jettySize=auto;html=1;exitX=1;exitY=0.5;exitDx=0;exitDy=0;entryX=0.5;entryY=0;entryDx=0;entryDy=0;" parent="1" source="fGmWadkg2smVgqGT0z6X-22" target="fGmWadkg2smVgqGT0z6X-25" edge="1">
          <mxGeometry relative="1" as="geometry" />
        </mxCell>
        <mxCell id="fGmWadkg2smVgqGT0z6X-45" style="edgeStyle=orthogonalEdgeStyle;rounded=0;orthogonalLoop=1;jettySize=auto;html=1;entryX=0.5;entryY=0;entryDx=0;entryDy=0;" parent="1" source="fGmWadkg2smVgqGT0z6X-22" target="fGmWadkg2smVgqGT0z6X-44" edge="1">
          <mxGeometry relative="1" as="geometry" />
        </mxCell>
        <mxCell id="fGmWadkg2smVgqGT0z6X-22" value="&lt;div style=&quot;font-size: 11px;&quot;&gt;&lt;font style=&quot;font-size: 11px;&quot;&gt;&lt;b&gt;Allow Duplicate&lt;/b&gt;&lt;/font&gt;&lt;/div&gt;&lt;div style=&quot;font-size: 11px;&quot;&gt;&lt;font style=&quot;font-size: 11px;&quot;&gt;&lt;b&gt;Values?&lt;/b&gt;&lt;/font&gt;&lt;/div&gt;&lt;div style=&quot;font-size: 11px;&quot;&gt;&lt;font style=&quot;font-size: 11px;&quot;&gt;(Permitir duplicado&lt;/font&gt;&lt;/div&gt;&lt;div style=&quot;font-size: 11px;&quot;&gt;&lt;font style=&quot;font-size: 11px;&quot;&gt;&lt;span style=&quot;background-color: initial;&quot;&gt;Valores?&lt;/span&gt;)&lt;/font&gt;&lt;/div&gt;" style="rhombus;whiteSpace=wrap;html=1;fillColor=#f5f5f5;gradientColor=#b3b3b3;strokeColor=#666666;" parent="1" vertex="1">
          <mxGeometry x="510" y="10" width="160" height="100" as="geometry" />
        </mxCell>
        <mxCell id="fGmWadkg2smVgqGT0z6X-24" value="No" style="text;html=1;strokeColor=none;fillColor=none;align=center;verticalAlign=middle;whiteSpace=wrap;rounded=0;" parent="1" vertex="1">
          <mxGeometry x="410" y="360" width="60" height="30" as="geometry" />
        </mxCell>
        <mxCell id="fGmWadkg2smVgqGT0z6X-29" style="edgeStyle=orthogonalEdgeStyle;rounded=0;orthogonalLoop=1;jettySize=auto;html=1;exitX=1;exitY=0.5;exitDx=0;exitDy=0;entryX=0.5;entryY=0;entryDx=0;entryDy=0;" parent="1" source="fGmWadkg2smVgqGT0z6X-25" target="fGmWadkg2smVgqGT0z6X-31" edge="1">
          <mxGeometry relative="1" as="geometry">
            <mxPoint x="860" y="210" as="targetPoint" />
          </mxGeometry>
        </mxCell>
        <mxCell id="fGmWadkg2smVgqGT0z6X-35" style="edgeStyle=orthogonalEdgeStyle;rounded=0;orthogonalLoop=1;jettySize=auto;html=1;entryX=0.5;entryY=0;entryDx=0;entryDy=0;" parent="1" source="fGmWadkg2smVgqGT0z6X-25" target="fGmWadkg2smVgqGT0z6X-32" edge="1">
          <mxGeometry relative="1" as="geometry" />
        </mxCell>
        <mxCell id="fGmWadkg2smVgqGT0z6X-25" value="&lt;div style=&quot;border-color: var(--border-color); font-size: 11px;&quot;&gt;&lt;b style=&quot;border-color: var(--border-color);&quot;&gt;Order is&lt;/b&gt;&lt;/div&gt;&lt;div style=&quot;border-color: var(--border-color); font-size: 11px;&quot;&gt;&lt;b style=&quot;border-color: var(--border-color);&quot;&gt;important?&lt;/b&gt;&lt;/div&gt;&lt;div style=&quot;border-color: var(--border-color); font-size: 11px;&quot;&gt;&lt;font style=&quot;border-color: var(--border-color);&quot;&gt;(El orden es&lt;/font&gt;&lt;/div&gt;&lt;div style=&quot;border-color: var(--border-color); font-size: 11px;&quot;&gt;&lt;font style=&quot;border-color: var(--border-color);&quot;&gt;importante?)&lt;/font&gt;&lt;/div&gt;" style="rhombus;whiteSpace=wrap;html=1;fillColor=#f5f5f5;gradientColor=#b3b3b3;strokeColor=#666666;" parent="1" vertex="1">
          <mxGeometry x="690" y="85" width="130" height="100" as="geometry" />
        </mxCell>
        <mxCell id="fGmWadkg2smVgqGT0z6X-27" value="No" style="text;html=1;strokeColor=none;fillColor=none;align=center;verticalAlign=middle;whiteSpace=wrap;rounded=0;" parent="1" vertex="1">
          <mxGeometry x="680" y="40" width="60" height="30" as="geometry" />
        </mxCell>
        <mxCell id="fGmWadkg2smVgqGT0z6X-30" value="No" style="text;html=1;strokeColor=none;fillColor=none;align=center;verticalAlign=middle;whiteSpace=wrap;rounded=0;" parent="1" vertex="1">
          <mxGeometry x="827" y="110" width="60" height="30" as="geometry" />
        </mxCell>
        <mxCell id="fGmWadkg2smVgqGT0z6X-31" value="&lt;b&gt;HashSet&lt;/b&gt;" style="rounded=0;whiteSpace=wrap;html=1;fillColor=#dae8fc;strokeColor=#6c8ebf;" parent="1" vertex="1">
          <mxGeometry x="865" y="200" width="80" height="30" as="geometry" />
        </mxCell>
        <mxCell id="fGmWadkg2smVgqGT0z6X-37" style="edgeStyle=orthogonalEdgeStyle;rounded=0;orthogonalLoop=1;jettySize=auto;html=1;entryX=0.5;entryY=0;entryDx=0;entryDy=0;" parent="1" source="fGmWadkg2smVgqGT0z6X-32" target="fGmWadkg2smVgqGT0z6X-41" edge="1">
          <mxGeometry relative="1" as="geometry">
            <mxPoint x="890" y="360" as="targetPoint" />
          </mxGeometry>
        </mxCell>
        <mxCell id="fGmWadkg2smVgqGT0z6X-43" style="edgeStyle=orthogonalEdgeStyle;rounded=0;orthogonalLoop=1;jettySize=auto;html=1;entryX=0.5;entryY=0;entryDx=0;entryDy=0;" parent="1" source="fGmWadkg2smVgqGT0z6X-32" target="fGmWadkg2smVgqGT0z6X-42" edge="1">
          <mxGeometry relative="1" as="geometry" />
        </mxCell>
        <mxCell id="fGmWadkg2smVgqGT0z6X-32" value="&lt;b style=&quot;border-color: var(--border-color); font-size: 11px;&quot;&gt;Sorted&lt;br style=&quot;border-color: var(--border-color);&quot;&gt;&lt;/b&gt;(Ordenada)" style="rhombus;whiteSpace=wrap;html=1;fillColor=#f5f5f5;gradientColor=#b3b3b3;strokeColor=#666666;" parent="1" vertex="1">
          <mxGeometry x="700" y="230" width="110" height="70" as="geometry" />
        </mxCell>
        <mxCell id="fGmWadkg2smVgqGT0z6X-34" value="yes" style="text;html=1;strokeColor=none;fillColor=none;align=center;verticalAlign=middle;whiteSpace=wrap;rounded=0;" parent="1" vertex="1">
          <mxGeometry x="740" y="190" width="60" height="30" as="geometry" />
        </mxCell>
        <mxCell id="fGmWadkg2smVgqGT0z6X-38" value="&lt;font style=&quot;font-size: 11px;&quot;&gt;&lt;b&gt;By Values&lt;/b&gt;&lt;br&gt;(Por valores)&lt;/font&gt;" style="text;html=1;strokeColor=none;fillColor=none;align=center;verticalAlign=middle;whiteSpace=wrap;rounded=0;" parent="1" vertex="1">
          <mxGeometry x="830" y="290" width="90" height="30" as="geometry" />
        </mxCell>
        <mxCell id="fGmWadkg2smVgqGT0z6X-40" value="&lt;div style=&quot;font-size: 11px;&quot;&gt;&lt;b&gt;&lt;font style=&quot;font-size: 11px;&quot;&gt;By&amp;nbsp;&amp;nbsp;&lt;/font&gt;&lt;span style=&quot;background-color: initial;&quot;&gt;Insertion&lt;/span&gt;&lt;/b&gt;&lt;/div&gt;&lt;div style=&quot;font-size: 11px;&quot;&gt;&lt;font style=&quot;font-size: 11px;&quot;&gt;&lt;b&gt;Order&lt;/b&gt;&lt;/font&gt;&lt;/div&gt;&lt;div style=&quot;font-size: 11px;&quot;&gt;&lt;font style=&quot;font-size: 11px;&quot;&gt;(Por&amp;nbsp;&lt;/font&gt;&lt;span style=&quot;background-color: initial;&quot;&gt;Inserción&lt;/span&gt;&lt;/div&gt;&lt;div style=&quot;font-size: 11px;&quot;&gt;&lt;font style=&quot;font-size: 11px;&quot;&gt;&lt;span style=&quot;background-color: initial;&quot;&gt;Orden&lt;/span&gt;)&lt;/font&gt;&lt;/div&gt;" style="text;html=1;strokeColor=none;fillColor=none;align=center;verticalAlign=middle;whiteSpace=wrap;rounded=0;" parent="1" vertex="1">
          <mxGeometry x="670" y="310" width="90" height="90" as="geometry" />
        </mxCell>
        <mxCell id="fGmWadkg2smVgqGT0z6X-41" value="&lt;b&gt;TreeSet&lt;/b&gt;" style="rounded=0;whiteSpace=wrap;html=1;fillColor=#dae8fc;strokeColor=#6c8ebf;" parent="1" vertex="1">
          <mxGeometry x="865" y="352.5" width="80" height="25" as="geometry" />
        </mxCell>
        <mxCell id="fGmWadkg2smVgqGT0z6X-42" value="&lt;b&gt;LinkedHashSet&lt;/b&gt;" style="rounded=0;whiteSpace=wrap;html=1;fillColor=#dae8fc;strokeColor=#6c8ebf;" parent="1" vertex="1">
          <mxGeometry x="705" y="390" width="100" height="30" as="geometry" />
        </mxCell>
        <mxCell id="fGmWadkg2smVgqGT0z6X-48" style="edgeStyle=orthogonalEdgeStyle;rounded=0;orthogonalLoop=1;jettySize=auto;html=1;entryX=0.5;entryY=0;entryDx=0;entryDy=0;" parent="1" source="fGmWadkg2smVgqGT0z6X-44" target="fGmWadkg2smVgqGT0z6X-47" edge="1">
          <mxGeometry relative="1" as="geometry">
            <Array as="points">
              <mxPoint x="425" y="218" />
            </Array>
          </mxGeometry>
        </mxCell>
        <mxCell id="fGmWadkg2smVgqGT0z6X-52" style="edgeStyle=orthogonalEdgeStyle;rounded=0;orthogonalLoop=1;jettySize=auto;html=1;entryX=0.5;entryY=0;entryDx=0;entryDy=0;" parent="1" source="fGmWadkg2smVgqGT0z6X-44" target="fGmWadkg2smVgqGT0z6X-51" edge="1">
          <mxGeometry relative="1" as="geometry" />
        </mxCell>
        <mxCell id="fGmWadkg2smVgqGT0z6X-44" value="&lt;div style=&quot;font-size: 11px;&quot;&gt;&lt;font style=&quot;font-size: 11px;&quot;&gt;&lt;b&gt;Faster Randon&amp;nbsp;&lt;/b&gt;&lt;/font&gt;&lt;/div&gt;&lt;div style=&quot;font-size: 11px;&quot;&gt;&lt;font style=&quot;font-size: 11px;&quot;&gt;&lt;b&gt;Access&lt;/b&gt;&lt;/font&gt;&lt;/div&gt;&lt;div style=&quot;font-size: 11px;&quot;&gt;&lt;font style=&quot;font-size: 11px;&quot;&gt;(Randón más rápido&lt;/font&gt;&lt;/div&gt;&lt;div style=&quot;font-size: 11px;&quot;&gt;&lt;font style=&quot;font-size: 11px;&quot;&gt;&lt;span style=&quot;background-color: initial;&quot;&gt;Acceso&lt;/span&gt;)&lt;/font&gt;&lt;/div&gt;" style="rhombus;whiteSpace=wrap;html=1;fillColor=#f5f5f5;gradientColor=#b3b3b3;strokeColor=#666666;" parent="1" vertex="1">
          <mxGeometry x="507.5" y="170" width="165" height="95" as="geometry" />
        </mxCell>
        <mxCell id="fGmWadkg2smVgqGT0z6X-46" value="yes" style="text;html=1;strokeColor=none;fillColor=none;align=center;verticalAlign=middle;whiteSpace=wrap;rounded=0;" parent="1" vertex="1">
          <mxGeometry x="550" y="125" width="60" height="30" as="geometry" />
        </mxCell>
        <mxCell id="fGmWadkg2smVgqGT0z6X-55" style="edgeStyle=orthogonalEdgeStyle;rounded=0;orthogonalLoop=1;jettySize=auto;html=1;entryX=0.5;entryY=0;entryDx=0;entryDy=0;" parent="1" source="fGmWadkg2smVgqGT0z6X-47" target="fGmWadkg2smVgqGT0z6X-54" edge="1">
          <mxGeometry relative="1" as="geometry" />
        </mxCell>
        <mxCell id="fGmWadkg2smVgqGT0z6X-47" value="&lt;font style=&quot;font-size: 11px;&quot;&gt;&lt;b&gt;Faster&lt;br&gt;&amp;nbsp;Insertion/Deletion?&lt;/b&gt;&lt;br&gt;(¿Inserción/eliminación&lt;br&gt;&amp;nbsp;más rápida?)&lt;/font&gt;" style="rhombus;whiteSpace=wrap;html=1;fillColor=#f5f5f5;gradientColor=#b3b3b3;strokeColor=#666666;" parent="1" vertex="1">
          <mxGeometry x="340" y="252.5" width="170" height="100" as="geometry" />
        </mxCell>
        <mxCell id="fGmWadkg2smVgqGT0z6X-49" value="No" style="text;html=1;strokeColor=none;fillColor=none;align=center;verticalAlign=middle;whiteSpace=wrap;rounded=0;" parent="1" vertex="1">
          <mxGeometry x="440" y="80" width="60" height="30" as="geometry" />
        </mxCell>
        <mxCell id="fGmWadkg2smVgqGT0z6X-51" value="&lt;b&gt;ArrayList&lt;/b&gt;" style="rounded=0;whiteSpace=wrap;html=1;fillColor=#dae8fc;strokeColor=#6c8ebf;" parent="1" vertex="1">
          <mxGeometry x="555" y="322.5" width="70" height="37.5" as="geometry" />
        </mxCell>
        <mxCell id="fGmWadkg2smVgqGT0z6X-53" value="yes" style="text;html=1;strokeColor=none;fillColor=none;align=center;verticalAlign=middle;whiteSpace=wrap;rounded=0;" parent="1" vertex="1">
          <mxGeometry x="550" y="280" width="60" height="30" as="geometry" />
        </mxCell>
        <mxCell id="fGmWadkg2smVgqGT0z6X-57" style="edgeStyle=orthogonalEdgeStyle;rounded=0;orthogonalLoop=1;jettySize=auto;html=1;exitX=0;exitY=0.5;exitDx=0;exitDy=0;" parent="1" source="fGmWadkg2smVgqGT0z6X-54" target="fGmWadkg2smVgqGT0z6X-56" edge="1">
          <mxGeometry relative="1" as="geometry" />
        </mxCell>
        <mxCell id="fGmWadkg2smVgqGT0z6X-63" style="edgeStyle=orthogonalEdgeStyle;rounded=0;orthogonalLoop=1;jettySize=auto;html=1;entryX=0.5;entryY=0;entryDx=0;entryDy=0;" parent="1" source="fGmWadkg2smVgqGT0z6X-54" target="fGmWadkg2smVgqGT0z6X-59" edge="1">
          <mxGeometry relative="1" as="geometry" />
        </mxCell>
        <mxCell id="fGmWadkg2smVgqGT0z6X-54" value="&lt;div style=&quot;font-size: 11px;&quot;&gt;&lt;font style=&quot;font-size: 11px;&quot;&gt;&lt;b&gt;To be used&lt;/b&gt;&lt;/font&gt;&lt;/div&gt;&lt;div style=&quot;font-size: 11px;&quot;&gt;&lt;font style=&quot;font-size: 11px;&quot;&gt;&lt;b&gt;as LIFO/FIFO&lt;/b&gt;&lt;/font&gt;&lt;/div&gt;&lt;div style=&quot;font-size: 11px;&quot;&gt;&lt;font style=&quot;font-size: 11px;&quot;&gt;(Para ser utilizado&lt;/font&gt;&lt;/div&gt;&lt;div style=&quot;font-size: 11px;&quot;&gt;&lt;font style=&quot;font-size: 11px;&quot;&gt;&lt;span style=&quot;background-color: initial;&quot;&gt;como LIFO/FIFO&lt;/span&gt;)&lt;/font&gt;&lt;/div&gt;" style="rhombus;whiteSpace=wrap;html=1;fillColor=#f5f5f5;gradientColor=#b3b3b3;strokeColor=#666666;" parent="1" vertex="1">
          <mxGeometry x="340" y="400" width="170" height="100" as="geometry" />
        </mxCell>
        <mxCell id="fGmWadkg2smVgqGT0z6X-56" value="&lt;b&gt;ArrayDeque&lt;/b&gt;" style="rounded=0;whiteSpace=wrap;html=1;fillColor=#dae8fc;strokeColor=#6c8ebf;" parent="1" vertex="1">
          <mxGeometry x="270" y="520" width="80" height="35" as="geometry" />
        </mxCell>
        <mxCell id="fGmWadkg2smVgqGT0z6X-58" value="FIFO" style="text;html=1;strokeColor=none;fillColor=none;align=center;verticalAlign=middle;whiteSpace=wrap;rounded=0;" parent="1" vertex="1">
          <mxGeometry x="260" y="490" width="60" height="30" as="geometry" />
        </mxCell>
        <mxCell id="fGmWadkg2smVgqGT0z6X-59" value="&lt;b&gt;Stack&lt;/b&gt;" style="rounded=0;whiteSpace=wrap;html=1;fillColor=#dae8fc;strokeColor=#6c8ebf;" parent="1" vertex="1">
          <mxGeometry x="520" y="520" width="70" height="30" as="geometry" />
        </mxCell>
        <mxCell id="fGmWadkg2smVgqGT0z6X-62" value="LIFO" style="text;html=1;strokeColor=none;fillColor=none;align=center;verticalAlign=middle;whiteSpace=wrap;rounded=0;" parent="1" vertex="1">
          <mxGeometry x="540" y="480" width="60" height="30" as="geometry" />
        </mxCell>
        <mxCell id="fGmWadkg2smVgqGT0z6X-64" value="&lt;b&gt;LinkedList&lt;/b&gt;" style="rounded=0;whiteSpace=wrap;html=1;fillColor=#dae8fc;strokeColor=#6c8ebf;" parent="1" vertex="1">
          <mxGeometry x="230" y="365" width="85" height="25" as="geometry" />
        </mxCell>
        <mxCell id="fGmWadkg2smVgqGT0z6X-65" style="edgeStyle=orthogonalEdgeStyle;rounded=0;orthogonalLoop=1;jettySize=auto;html=1;entryX=0.5;entryY=0;entryDx=0;entryDy=0;" parent="1" source="fGmWadkg2smVgqGT0z6X-47" target="fGmWadkg2smVgqGT0z6X-64" edge="1">
          <mxGeometry relative="1" as="geometry" />
        </mxCell>
        <mxCell id="fGmWadkg2smVgqGT0z6X-66" value="yes" style="text;html=1;strokeColor=none;fillColor=none;align=center;verticalAlign=middle;whiteSpace=wrap;rounded=0;" parent="1" vertex="1">
          <mxGeometry x="280" y="280" width="60" height="30" as="geometry" />
        </mxCell>
        <mxCell id="fggcoWk5MoFgKNvwU-eI-1" value="No" style="text;html=1;strokeColor=none;fillColor=none;align=center;verticalAlign=middle;whiteSpace=wrap;rounded=0;" vertex="1" parent="1">
          <mxGeometry x="440" y="195" width="60" height="30" as="geometry" />
        </mxCell>
      </root>
    </mxGraphModel>
  </diagram>
</mxfile>
